<svg width="75" height="50" viewBox="0 0 75 50" fill="none" xmlns="http://www.w3.org/2000/svg">
<rect width="75" height="50" fill="url(#paint0_linear)"/>
<path d="M36.12 29.728C34.896 34.816 31.236 37.36 25.14 37.36C22.644 37.36 20.484 36.88 18.66 35.92C16.86 34.96 15.468 33.568 14.484 31.744C13.524 29.896 13.044 27.688 13.044 25.12C13.044 22.552 13.524 20.356 14.484 18.532C15.468 16.684 16.86 15.28 18.66 14.32C20.484 13.36 22.644 12.88 25.14 12.88C27.924 12.88 30.3 13.48 32.268 14.68C34.236 15.856 35.46 17.656 35.94 20.08L28.74 22.888C28.548 21.424 28.2 20.44 27.696 19.936C27.192 19.432 26.412 19.18 25.356 19.18C24.108 19.18 23.172 19.66 22.548 20.62C21.924 21.58 21.612 23.08 21.612 25.12C21.612 27.16 21.912 28.66 22.512 29.62C23.112 30.58 24.036 31.06 25.284 31.06C26.412 31.06 27.228 30.808 27.732 30.304C28.236 29.8 28.56 28.972 28.704 27.82L36.12 29.728ZM49.5033 12.88C53.2953 12.88 56.2473 13.96 58.3593 16.12C60.4953 18.256 61.5633 21.256 61.5633 25.12C61.5633 28.984 60.4953 31.996 58.3593 34.156C56.2473 36.292 53.2953 37.36 49.5033 37.36C47.0073 37.36 44.8473 36.88 43.0233 35.92C41.2233 34.96 39.8313 33.568 38.8473 31.744C37.8873 29.896 37.4073 27.688 37.4073 25.12C37.4073 22.552 37.8873 20.356 38.8473 18.532C39.8313 16.684 41.2233 15.28 43.0233 14.32C44.8473 13.36 47.0073 12.88 49.5033 12.88ZM49.5033 19.18C48.2793 19.18 47.3793 19.66 46.8033 20.62C46.2513 21.556 45.9753 23.056 45.9753 25.12C45.9753 27.184 46.2513 28.696 46.8033 29.656C47.3793 30.592 48.2793 31.06 49.5033 31.06C50.7273 31.06 51.6153 30.592 52.1673 29.656C52.7193 28.696 52.9953 27.184 52.9953 25.12C52.9953 23.056 52.7193 21.556 52.1673 20.62C51.6153 19.66 50.7273 19.18 49.5033 19.18Z" fill="white"/>
<defs>
<linearGradient id="paint0_linear" x1="0" y1="25" x2="75" y2="25" gradientUnits="userSpaceOnUse">
<stop stop-color="#FF8A00"/>
<stop offset="1" stop-color="#E52E71"/>
</linearGradient>
</defs>
</svg>
