<svg width="55" height="55" viewBox="0 0 55 55" fill="none" xmlns="http://www.w3.org/2000/svg">
<path fill-rule="evenodd" clip-rule="evenodd" d="M36.5937 34.375H39.0625L54.6562 50L50 54.6562L34.375 39.0625V36.5937L33.5312 35.7188C29.9687 38.7812 25.3437 40.625 20.3125 40.625C9.09375 40.625 0 31.5312 0 20.3125C0 9.09375 9.09375 0 20.3125 0C31.5312 0 40.625 9.09375 40.625 20.3125C40.625 25.3437 38.7812 29.9687 35.7188 33.5312L36.5937 34.375ZM6.25 20.3125C6.25 28.0938 12.5313 34.375 20.3125 34.375C28.0938 34.375 34.375 28.0938 34.375 20.3125C34.375 12.5313 28.0938 6.25 20.3125 6.25C12.5313 6.25 6.25 12.5313 6.25 20.3125Z" fill="url(#paint0_linear)"/>
<defs>
<linearGradient id="paint0_linear" x1="-0.171875" y1="26.8281" x2="54.8281" y2="26.8281" gradientUnits="userSpaceOnUse">
<stop stop-color="#FF8A00"/>
<stop offset="1" stop-color="#E52E71"/>
</linearGradient>
</defs>
</svg>
